<?xml version="1.0" encoding="UTF-8"?>
<svg version="1.1" xmlns="http://www.w3.org/2000/svg" width="483" height="741">
<path d="M0 0 C0.87584747 0.00215515 1.75169495 0.0043103 2.65408325 0.00653076 C60.83632647 0.23558689 119.4227346 21.47434528 161.88671875 61.94140625 C163.99309341 63.94857959 166.14111653 65.82668872 168.375 67.6875 C202.76907824 97.7557251 226.16209545 143.47782308 236.0625 187.5 C236.34830933 188.7521228 236.34830933 188.7521228 236.63989258 190.02954102 C240.83680198 209.82700935 241.82528457 229.47049463 241.76717401 249.65491712 C241.76026285 253.22216538 241.7709232 256.78937346 241.77911377 260.35661316 C241.79232774 267.31120899 241.78962907 274.2657067 241.78087585 281.22030609 C241.7740499 286.88222082 241.77320356 292.5441084 241.7764473 298.20602608 C241.776907 299.01748739 241.77736669 299.8289487 241.77784032 300.66499974 C241.77879968 302.31441891 241.77977232 303.96383808 241.7807581 305.61325724 C241.78927599 321.01488966 241.77953506 336.41646818 241.763357 351.81809176 C241.74995967 364.97893384 241.75228413 378.13969647 241.76611328 391.30053711 C241.78223758 406.65238436 241.7884497 422.00418457 241.77927649 437.35603911 C241.77832103 438.99907878 241.77737792 440.64211847 241.7764473 442.28515816 C241.77598447 443.09317299 241.77552164 443.90118782 241.77504479 444.73368795 C241.77247516 450.37579914 241.77678169 456.01788001 241.78388596 461.6599865 C241.79237794 468.55453843 241.78986185 475.44898817 241.77404372 482.34352868 C241.76626249 485.84840498 241.76289102 489.35311214 241.77299118 492.85798645 C241.81870146 513.80973027 240.87273605 534.61741047 235.625 555 C235.36823486 556.02633545 235.11146973 557.0526709 234.84692383 558.11010742 C223.62834817 601.82712542 201.53518073 638.95691592 170.375 671.3125 C169.24578125 672.50359375 169.24578125 672.50359375 168.09375 673.71875 C162.9131083 679.0692488 157.20718131 683.69310341 151.375 688.3125 C149.96154297 689.46878906 149.96154297 689.46878906 148.51953125 690.6484375 C108.25450881 722.83961973 57.58154298 739.61797117 6.375 741.3125 C4.86099609 741.374375 4.86099609 741.374375 3.31640625 741.4375 C-37.87107768 742.31266566 -78.4354914 731.64325962 -114.625 712.3125 C-115.28983398 711.96074707 -115.95466797 711.60899414 -116.63964844 711.24658203 C-130.77528445 703.71862843 -143.44842085 694.71760133 -155.625 684.3125 C-156.37394531 683.67570313 -157.12289062 683.03890625 -157.89453125 682.3828125 C-172.36907065 669.70834359 -185.538878 656.05257525 -196.625 640.3125 C-197.07278809 639.68279297 -197.52057617 639.05308594 -197.98193359 638.40429688 C-231.06569307 591.53255719 -241.78278353 538.88392 -241.77026367 482.45507812 C-241.77326009 479.75130075 -241.77663617 477.04752612 -241.78044128 474.34375 C-241.78869752 467.79081794 -241.79149385 461.23789487 -241.79205366 454.68495804 C-241.7925313 449.3494139 -241.79459829 444.01387268 -241.79775429 438.67832947 C-241.80654773 423.49962755 -241.81117581 408.32093267 -241.81042381 393.14222819 C-241.81038386 392.3263671 -241.8103439 391.51050602 -241.81030273 390.66992188 C-241.81026185 389.85304663 -241.81022097 389.03617139 -241.81017885 388.19454235 C-241.80977292 374.97404205 -241.81933252 361.7535703 -241.8334411 348.53307825 C-241.84786496 334.90793078 -241.85470797 321.28279718 -241.85384732 307.65764189 C-241.85351738 300.02850861 -241.85617436 292.39940526 -241.86702538 284.77027893 C-241.87621001 278.27188329 -241.87824132 271.77353114 -241.87151595 265.27513176 C-241.86829011 261.97094423 -241.86917338 258.66690651 -241.8768692 255.36271667 C-241.92047641 235.32308456 -241.48189447 215.20987444 -237.5 195.5 C-237.28682129 194.43144775 -237.07364258 193.36289551 -236.85400391 192.26196289 C-225.3798791 137.33631508 -194.36808014 85.68037315 -149.625 51.3125 C-149.06441895 50.8808252 -148.50383789 50.44915039 -147.92626953 50.00439453 C-138.87703411 43.07918503 -129.5713804 36.87090535 -119.625 31.3125 C-118.84382813 30.87405762 -118.06265625 30.43561523 -117.2578125 29.98388672 C-81.06296145 9.86389066 -41.35679307 -0.18420418 0 0 Z M-26.625 23.3125 C-26.28729417 31.31612826 -25.05741408 39.06688253 -23.625 46.9375 C-23.35768066 48.41404053 -23.35768066 48.41404053 -23.08496094 49.92041016 C-22.29708797 54.75766692 -22.29708797 54.75766692 -20.625 59.3125 C-19.81458252 59.30726318 -19.00416504 59.30202637 -18.16918945 59.29663086 C-15.0957873 59.2793535 -12.02241029 59.26693745 -8.94897461 59.25756836 C-6.99135673 59.25020264 -5.03376129 59.23748174 -3.07617188 59.22460938 C5.12450314 59.20374252 13.20992363 59.54553794 21.375 60.3125 C22.2327799 55.52589047 23.08718904 50.73869619 23.93847656 45.95092773 C24.22856503 44.3221816 24.5195748 42.69359928 24.81152344 41.06518555 C25.2309397 38.72487131 25.647042 36.38398848 26.0625 34.04296875 C26.25936401 32.95063179 26.25936401 32.95063179 26.46020508 31.83622742 C26.96982126 28.94936371 27.375 26.25083134 27.375 23.3125 C21.64169661 22.49141822 16.09605104 22.16485496 10.30859375 22.1796875 C9.47086929 22.17873077 8.63314484 22.17777405 7.77003479 22.17678833 C6.01115849 22.17611216 4.25227961 22.17792688 2.4934082 22.18212891 C-0.18348843 22.18749196 -2.86021783 22.18216123 -5.53710938 22.17578125 C-7.2552087 22.176442 -8.97330792 22.1777231 -10.69140625 22.1796875 C-11.87918419 22.17665115 -11.87918419 22.17665115 -13.09095764 22.17355347 C-17.70389054 22.19282649 -22.07373383 22.55175222 -26.625 23.3125 Z M49.375 27.3125 C47.97529108 31.9721258 46.89764863 36.53365942 46.0859375 41.33984375 C45.86679687 42.62568359 45.64765625 43.91152344 45.421875 45.23632812 C45.19783108 46.57420442 44.9738738 47.91209523 44.75 49.25 C44.51858852 50.61529533 44.28682082 51.98053034 44.0546875 53.34570312 C43.49129129 56.66739327 42.93151128 59.98965064 42.375 63.3125 C43.17442017 63.57752319 43.17442017 63.57752319 43.98999023 63.84790039 C49.81663701 65.78423112 55.63336093 67.74719455 61.4375 69.75 C62.28376953 70.03681641 63.13003906 70.32363281 64.00195312 70.61914062 C68.78913448 72.27638382 73.19287516 74.12108384 77.58374023 76.66040039 C79.37312817 77.43556003 79.37312817 77.43556003 81.39038086 77.26098633 C84.38394112 75.83030831 85.19620094 73.74129489 86.7578125 70.8515625 C87.36753906 69.74039063 87.97726562 68.62921875 88.60546875 67.484375 C89.2374076 66.30231228 89.86891357 65.12001804 90.5 63.9375 C91.13807998 62.7623451 91.77738983 61.58785709 92.41796875 60.4140625 C93.59389696 58.25694578 94.76392701 56.09659641 95.92626953 53.93212891 C97.375 51.3125 97.375 51.3125 99.375 48.3125 C99.375 47.3225 99.375 46.3325 99.375 45.3125 C89.16310491 40.45293205 78.93046915 35.93792183 68.1875 32.375 C67.34034424 32.09325928 66.49318848 31.81151855 65.62036133 31.52124023 C60.25574509 29.79087245 54.89342386 28.46055401 49.375 27.3125 Z M-81.375 37.375 C-82.56863159 37.84873047 -82.56863159 37.84873047 -83.78637695 38.33203125 C-89.30529334 40.59644003 -94.46982063 43.31603285 -99.625 46.3125 C-95.13739857 55.78024448 -89.95089536 64.73996196 -84.5612793 73.71533203 C-83.87262091 74.89009166 -83.23398449 76.09453102 -82.625 77.3125 C-77.48173795 76.60779947 -72.93962036 74.48168963 -68.1875 72.5 C-60.10617558 69.18822417 -52.10480957 66.44649181 -43.625 64.3125 C-42.37706801 59.90955896 -42.95098302 56.21726911 -43.83984375 51.82421875 C-43.97443497 51.12102005 -44.10902618 50.41782135 -44.24769592 49.6933136 C-44.67716301 47.46039826 -45.11961765 45.2302891 -45.5625 43 C-45.85698239 41.4812868 -46.15061158 39.96240789 -46.44335938 38.44335938 C-47.16070764 34.73108148 -47.88970989 31.02126403 -48.625 27.3125 C-59.01532773 27.3125 -71.85336731 33.57106555 -81.375 37.375 Z M119.375 57.3125 C114.72305412 63.56667599 110.80506729 70.40477572 106.875 77.125 C106.31296875 78.05248047 105.7509375 78.97996094 105.171875 79.93554688 C104.39070313 81.27649414 104.39070313 81.27649414 103.59375 82.64453125 C103.11873047 83.44608643 102.64371094 84.2476416 102.15429688 85.07348633 C101.1236702 87.3002129 101.1236702 87.3002129 102.10449219 89.49682617 C103.78644262 91.90048977 105.69301639 93.17199035 108.125 94.8125 C114.15263952 99.04298051 119.66348313 103.74286541 125.2109375 108.578125 C127.87436239 110.89876469 130.59789343 113.12825888 133.375 115.3125 C140.28244044 109.73016038 147.07689038 104.03990205 153.77783203 98.21191406 C158.16290319 94.41854841 158.16290319 94.41854841 160.375 93.3125 C158.73567827 89.16421636 155.7361501 86.33055911 152.625 83.25 C152.05152832 82.67999268 151.47805664 82.10998535 150.88720703 81.52270508 C144.79261442 75.57762741 138.20112852 70.38401808 131.375 65.3125 C130.82408691 64.90032227 130.27317383 64.48814453 129.70556641 64.06347656 C124.90712272 59.7162169 124.90712272 59.7162169 119.375 57.3125 Z M-159.625 90.3125 C-158.78105685 95.04375377 -155.82155632 97.08181135 -152.25 100 C-151.62528809 100.52239258 -151.00057617 101.04478516 -150.35693359 101.58300781 C-148.45434511 103.16954687 -146.54117516 104.74241157 -144.625 106.3125 C-143.49987215 107.24073047 -142.37486423 108.16910633 -141.25 109.09765625 C-138.71630526 111.1793768 -136.17542695 113.25133863 -133.625 115.3125 C-129.99559 113.79818834 -127.86215586 111.66306071 -125.1875 108.8125 C-117.80903444 101.27006854 -109.4407984 95.09291871 -100.625 89.3125 C-106.39058565 78.51467073 -112.53187339 67.92743017 -118.625 57.3125 C-130.83387434 57.3125 -151.24977 82.36676898 -159.625 90.3125 Z M-119.625 133.3125 C-127.09479405 142.10612851 -133.73573735 151.39431612 -139.625 161.3125 C-139.97159668 161.89580078 -140.31819336 162.47910156 -140.67529297 163.08007812 C-154.6764692 187.04451503 -160.82626722 213.94062543 -160.72265625 241.53125 C-160.72078817 242.99955192 -160.71936611 244.46785446 -160.71836853 245.93615723 C-160.71457409 249.77642578 -160.70477049 253.61665574 -160.69366455 257.45690918 C-160.68338392 261.38532998 -160.67885674 265.31375709 -160.67382812 269.2421875 C-160.66314508 276.93230915 -160.64610614 284.62239914 -160.625 292.3125 C-159.74932373 292.39012321 -159.74932373 292.39012321 -158.85595703 292.46931458 C-156.15359366 292.7111901 -153.45181282 292.95908439 -150.75 293.20703125 C-149.8321875 293.28828247 -148.914375 293.36953369 -147.96875 293.45324707 C-116.97794186 296.32453453 -87.11050598 307.42405993 -61.625 325.3125 C-60.32819405 322.71888811 -60.83205231 321.7919198 -61.55078125 319.015625 C-61.77056641 318.13777344 -61.99035156 317.25992188 -62.21679688 316.35546875 C-62.68519345 314.54027335 -63.15392477 312.72516428 -63.62304688 310.91015625 C-67.02298378 297.3300048 -68.00376426 284.11663701 -67.9375 270.1875 C-67.93426727 268.96327835 -67.93426727 268.96327835 -67.93096924 267.71432495 C-67.87867685 255.36379877 -67.44688169 243.38599562 -64.625 231.3125 C-64.42632324 230.44206055 -64.22764648 229.57162109 -64.02294922 228.67480469 C-54.91110255 189.86584575 -32.79955959 149.60527588 0.375 126.3125 C1.01566406 126.89257812 1.65632812 127.47265625 2.31640625 128.0703125 C8.11222137 133.31170655 8.11222137 133.31170655 14.0625 138.375 C45.70357323 165.35056596 63.95816859 211.48012341 67.9921875 251.8203125 C69.99447852 276.99518496 67.09617974 301.05780788 60.375 325.3125 C64.33941739 323.87748237 67.64814167 321.96831885 71.1875 319.6875 C96.45485989 303.8581781 125.06328251 294.81081508 154.7890625 292.765625 C156.02865723 292.67958008 157.26825195 292.59353516 158.54541016 292.50488281 C159.4791748 292.44139648 160.41293945 292.37791016 161.375 292.3125 C161.44569262 285.03441933 161.4983973 277.75641706 161.53043652 270.47805786 C161.54584321 267.09538698 161.56834296 263.71313702 161.60131836 260.33056641 C162.07652715 210.25660531 150.78939681 165.97740517 115.375 129.3125 C114.52421875 128.39855469 113.6734375 127.48460937 112.796875 126.54296875 C84.60755211 97.04545872 43.25471843 81.10377715 2.83789062 79.96118164 C-42.83853316 79.52198526 -89.08813838 98.99544662 -119.625 133.3125 Z M-175.625 109.3125 C-176.88084678 110.72550641 -176.88084678 110.72550641 -178.09375 112.6171875 C-178.57779297 113.33720947 -179.06183594 114.05723145 -179.56054688 114.79907227 C-180.07681641 115.58725342 -180.59308594 116.37543457 -181.125 117.1875 C-181.92260742 118.39587524 -181.92260742 118.39587524 -182.73632812 119.62866211 C-186.40692764 125.26416986 -189.85428198 130.99894286 -193.125 136.875 C-193.52138672 137.5870459 -193.91777344 138.2990918 -194.32617188 139.03271484 C-196.3176127 142.68624282 -198.19372872 146.38878193 -199.96875 150.15234375 C-200.48211914 151.23890259 -200.48211914 151.23890259 -201.00585938 152.34741211 C-201.89196958 154.48942121 -201.89196958 154.48942121 -200.625 157.3125 C-198.35922485 158.37566265 -196.20750807 159.23637394 -193.8515625 160.046875 C-193.17201508 160.28915833 -192.49246765 160.53144165 -191.79232788 160.78106689 C-190.35346413 161.2908867 -188.91252043 161.79486805 -187.46972656 162.29345703 C-185.26040889 163.05889375 -183.05984756 163.84626251 -180.859375 164.63671875 C-179.461406 165.12893681 -178.0629823 165.61986574 -176.6640625 166.109375 C-176.00459625 166.34573669 -175.34513 166.58209839 -174.66567993 166.82562256 C-170.6951112 168.19231968 -170.6951112 168.19231968 -166.625 167.3125 C-165.21886932 165.20594963 -165.21886932 165.20594963 -163.98828125 162.5703125 C-163.49682617 161.59070557 -163.00537109 160.61109863 -162.49902344 159.60180664 C-161.9837207 158.55758545 -161.46841797 157.51336426 -160.9375 156.4375 C-156.75458413 148.16268424 -152.57418681 140.46902178 -146.625 133.3125 C-150.56120841 129.26318215 -154.71639814 125.55218834 -159 121.875 C-159.63421875 121.32779297 -160.2684375 120.78058594 -160.921875 120.21679688 C-162.18908773 119.12414916 -163.45826982 118.03378093 -164.72949219 116.94580078 C-166.02532685 115.82921991 -167.31208544 114.70204183 -168.59082031 113.56591797 C-169.21311523 113.01693848 -169.83541016 112.46795898 -170.4765625 111.90234375 C-171.03424316 111.40468506 -171.59192383 110.90702637 -172.16650391 110.39428711 C-173.59007856 109.11392259 -173.59007856 109.11392259 -175.625 109.3125 Z M174.375 109.3125 C173.05048828 110.45525391 173.05048828 110.45525391 171.69921875 111.62109375 C170.48723987 112.66436544 169.27498013 113.7073109 168.0625 114.75 C167.43182617 115.29261475 166.80115234 115.83522949 166.15136719 116.39428711 C161.33878482 120.52065784 156.44847379 124.52928192 151.484375 128.47265625 C149.18090391 130.31934544 149.18090391 130.31934544 147.375 133.3125 C148.06464844 134.33085937 148.75429688 135.34921875 149.46484375 136.3984375 C156.31688762 146.66731826 162.09237974 157.16030168 167.375 168.3125 C171.97782906 167.69654218 175.97525975 166.47523187 180.3046875 164.80859375 C180.93988312 164.5658522 181.57507874 164.32311066 182.22952271 164.07301331 C184.23841403 163.30393407 186.24420469 162.52711315 188.25 161.75 C189.61959348 161.22409295 190.98938339 160.69869716 192.359375 160.17382812 C195.70020837 158.89262222 199.03830853 157.60446034 202.375 156.3125 C199.51038627 149.18326206 196.52632829 142.25725305 192.75 135.5625 C192.32976562 134.81170166 191.90953125 134.06090332 191.4765625 133.28735352 C184.59169292 119.65020057 184.59169292 119.65020057 174.375 109.3125 Z M-11.625 168.3125 C-37.9644856 199.45189186 -49.92164199 241.25910323 -47.23071289 281.63378906 C-44.60140139 312.87390501 -33.28327009 348.65422991 -10.625 371.3125 C-10.625 304.3225 -10.625 237.3325 -10.625 168.3125 C-10.955 168.3125 -11.285 168.3125 -11.625 168.3125 Z M11.375 168.3125 C11.375 234.9725 11.375 301.6325 11.375 370.3125 C36.60876837 345.07873163 47.53714421 304.86065955 47.625 270 C47.58929098 233.77319593 35.87058695 196.39373533 12.375 168.3125 C12.045 168.3125 11.715 168.3125 11.375 168.3125 Z M-209.625 177.3125 C-212.18154841 183.61070236 -213.81511635 189.84876179 -215.1875 196.5 C-215.5117395 198.05557617 -215.5117395 198.05557617 -215.8425293 199.64257812 C-217.879559 209.83934909 -218.83323971 219.94763799 -219.625 230.3125 C-207.415 230.3125 -195.205 230.3125 -182.625 230.3125 C-181.06864559 220.93509145 -181.06864559 220.93509145 -179.51416016 211.55737305 C-178.2789536 204.13055541 -177.00266498 196.71428277 -175.625 189.3125 C-183.07053564 186.06773992 -190.58830294 183.19092746 -198.25 180.5 C-199.13913086 180.18603271 -200.02826172 179.87206543 -200.94433594 179.54858398 C-201.7799707 179.25798096 -202.61560547 178.96737793 -203.4765625 178.66796875 C-204.22760254 178.40653076 -204.97864258 178.14509277 -205.75244141 177.87573242 C-207.61830162 177.21648831 -207.61830162 177.21648831 -209.625 177.3125 Z M200.58984375 179.6484375 C199.93295059 179.88785065 199.27605743 180.12726379 198.59925842 180.37393188 C197.21234204 180.88099032 195.82632776 181.39052207 194.44116211 181.90234375 C192.31965234 182.68486186 190.19430018 183.45617645 188.06835938 184.2265625 C186.72110767 184.72068261 185.37409407 185.21545248 184.02734375 185.7109375 C182.80007568 186.16130371 181.57280762 186.61166992 180.30834961 187.07568359 C177.31579951 188.12047703 177.31579951 188.12047703 175.375 190.3125 C175.53501214 192.48201548 175.53501214 192.48201548 176.203125 194.94140625 C176.42613281 195.89595703 176.64914062 196.85050781 176.87890625 197.83398438 C177.12511719 198.83751953 177.37132812 199.84105469 177.625 200.875 C180.0269031 210.71743531 181.17480427 220.11083633 182.375 230.3125 C194.585 230.3125 206.795 230.3125 219.375 230.3125 C218.75093496 219.70339431 218.1085798 210.12294883 216 199.875 C215.79117188 198.79541016 215.58234375 197.71582031 215.3671875 196.60351562 C214.06409142 190.04433383 212.43060636 183.67598099 210.375 177.3125 C206.66629462 177.3125 204.07878026 178.37569762 200.58984375 179.6484375 Z M-219.625 252.3125 C-219.625 267.8225 -219.625 283.3325 -219.625 299.3125 C-212.31127584 297.76110511 -212.31127584 297.76110511 -204.99926758 296.20166016 C-204.05720459 296.00362793 -203.1151416 295.8055957 -202.14453125 295.6015625 C-201.20714111 295.40256348 -200.26975098 295.20356445 -199.30395508 294.99853516 C-193.76809724 293.96623304 -188.19080262 293.16877733 -182.625 292.3125 C-182.625 279.1125 -182.625 265.9125 -182.625 252.3125 C-194.835 252.3125 -207.045 252.3125 -219.625 252.3125 Z M183.375 252.3125 C183.375 265.5125 183.375 278.7125 183.375 292.3125 C192.2289398 293.87106967 192.2289398 293.87106967 201.08398438 295.42333984 C202.20095703 295.62137207 203.31792969 295.8194043 204.46875 296.0234375 C206.16547852 296.32193604 206.16547852 296.32193604 207.89648438 296.62646484 C211.75175587 297.38680404 215.56279249 298.35944812 219.375 299.3125 C219.375 283.8025 219.375 268.2925 219.375 252.3125 C207.495 252.3125 195.615 252.3125 183.375 252.3125 Z M-199.625 316.3125 C-199.625 316.9725 -199.625 317.6325 -199.625 318.3125 C-198.99746826 318.62364746 -198.36993652 318.93479492 -197.72338867 319.25537109 C-187.13874239 324.50961303 -176.55886082 329.76342255 -166.125 335.3125 C-159.01368104 339.09389745 -151.83789047 342.72879402 -144.625 346.3125 C-136.64098112 350.27933914 -128.71897312 354.33800314 -120.84765625 358.5234375 C-114.49057583 361.88958126 -108.06678707 365.11191475 -101.625 368.3125 C-93.64098112 372.27933914 -85.71897312 376.33800314 -77.84765625 380.5234375 C-70.48470151 384.42220274 -63.02790971 388.12510521 -55.56689453 391.83178711 C-47.48870124 395.85525106 -39.49188289 400.01797273 -31.5234375 404.25390625 C-30.85795898 404.60469238 -30.19248047 404.95547852 -29.50683594 405.31689453 C-27.74094285 406.25115919 -25.98342866 407.20121276 -24.2265625 408.15234375 C-23.36804688 408.53519531 -22.50953125 408.91804688 -21.625 409.3125 C-20.965 408.9825 -20.305 408.6525 -19.625 408.3125 C-28.13067859 391.15078992 -38.2114664 376.02367118 -51.625 362.3125 C-52.43453125 361.45269531 -53.2440625 360.59289062 -54.078125 359.70703125 C-64.53093702 348.83273488 -76.49855145 340.59869277 -89.625 333.3125 C-90.55820068 332.79042969 -90.55820068 332.79042969 -91.51025391 332.2578125 C-111.76134349 321.09058818 -135.43976885 314.08426914 -158.625 313.3125 C-159.89472656 313.2609375 -161.16445312 313.209375 -162.47265625 313.15625 C-175.02805237 312.82041486 -187.22945795 314.4427258 -199.625 316.3125 Z M54.375 359.3125 C53.69953125 359.91449219 53.0240625 360.51648438 52.328125 361.13671875 C39.27237588 373.47751018 27.3207946 390.73859175 20.375 407.3125 C20.375 407.9725 20.375 408.6325 20.375 409.3125 C25.21446609 407.50700219 29.77140649 405.18630404 34.3828125 402.875 C35.26290985 402.43542969 36.1430072 401.99585938 37.04977417 401.54296875 C38.91795228 400.60921971 40.78562638 399.67446167 42.65283203 398.73876953 C45.44026617 397.34242326 48.22975729 395.95025814 51.01953125 394.55859375 C60.69412777 389.72290824 70.31461594 384.800708 79.87307739 379.73925781 C85.99389742 376.50069935 92.16462294 373.37599342 98.375 370.3125 C105.58889424 366.73087287 112.7637043 363.09380646 119.875 359.3125 C128.00458833 354.98973434 136.22722467 350.87015886 144.47265625 346.7734375 C151.40815435 343.31897485 158.27772245 339.75930887 165.1171875 336.11914062 C172.85513632 332.01908412 180.69441514 328.12539529 188.54492188 324.24609375 C189.52009766 323.76269531 190.49527344 323.27929688 191.5 322.78125 C192.36882812 322.35263672 193.23765625 321.92402344 194.1328125 321.48242188 C196.55704601 320.26832783 196.55704601 320.26832783 199.375 318.3125 C199.375 317.6525 199.375 316.9925 199.375 316.3125 C145.24193243 306.58177407 94.97398834 322.82602855 54.375 359.3125 Z M-209.625 338.3125 C-205.91469678 350.86148367 -197.78773624 362.28212971 -189.625 372.3125 C-189.16722168 372.87710938 -188.70944336 373.44171875 -188.23779297 374.0234375 C-161.89434865 406.29437698 -123.57558934 427.80394374 -82.0546875 432.84375 C-64.42435358 434.58241573 -46.99182074 433.63932541 -29.625 430.3125 C-32.78216561 427.78648257 -36.06442908 425.93865489 -39.65625 424.08984375 C-40.24004425 423.78826355 -40.8238385 423.48668335 -41.42532349 423.17596436 C-43.32331656 422.19690343 -45.22406689 421.22333851 -47.125 420.25 C-48.44460189 419.57091989 -49.76409983 418.89163775 -51.08349609 418.2121582 C-59.24446492 414.01552348 -67.43627109 409.88386898 -75.65722656 405.8059082 C-81.89296253 402.70412497 -88.05093335 399.46830811 -94.20166016 396.2019043 C-100.62676756 392.8045314 -107.11625782 389.54629334 -113.625 386.3125 C-121.60902224 382.34566713 -129.53102691 378.28699684 -137.40234375 374.1015625 C-144.77543143 370.19743175 -152.24268086 366.48980462 -159.71386719 362.77783203 C-165.97700626 359.65828772 -172.19522708 356.46889894 -178.375 353.1875 C-185.11012102 349.61541711 -191.87830872 346.1165101 -198.6875 342.6875 C-199.55149414 342.24905762 -200.41548828 341.81061523 -201.30566406 341.35888672 C-202.10327148 340.95943848 -202.90087891 340.55999023 -203.72265625 340.1484375 C-204.42914307 339.79313965 -205.13562988 339.4378418 -205.86352539 339.07177734 C-207.61141523 338.1805538 -207.61141523 338.1805538 -209.625 338.3125 Z M209.375 337.3125 C185.99271445 349.24573239 162.61296667 361.18382173 139.2505188 373.15585327 C124.85880771 380.53069455 110.46075738 387.89306793 96.06021118 395.25064087 C80.0980617 403.40627691 64.14234819 411.57441879 48.19140625 419.75195312 C46.57682327 420.57942777 44.96223995 421.40690177 43.34765625 422.234375 C42.26334068 422.79055511 42.26334068 422.79055511 41.15711975 423.35797119 C37.24057109 425.36493983 33.31489931 427.35158593 29.375 429.3125 C29.375 429.6425 29.375 429.9725 29.375 430.3125 C73.43333694 438.1700378 116.83598798 430.58985825 154.1953125 405.53125 C162.47035259 399.75702055 169.98842656 393.17233603 177.375 386.3125 C178.01824219 385.735 178.66148437 385.1575 179.32421875 384.5625 C191.12810073 373.47625445 199.98361795 359.59930557 207.375 345.3125 C207.97054687 344.21292969 208.56609375 343.11335938 209.1796875 341.98046875 C209.57414063 341.10003906 209.96859375 340.21960938 210.375 339.3125 C210.045 338.6525 209.715 337.9925 209.375 337.3125 Z M-219.625 368.3125 C-219.69557102 386.50832201 -219.74822075 404.70410775 -219.78043652 422.90003777 C-219.79580285 431.35169976 -219.81669234 439.80327596 -219.85131836 448.25488281 C-219.88153867 455.6347514 -219.90064898 463.01455778 -219.90726548 470.39448655 C-219.91112351 474.28990343 -219.91996653 478.18514257 -219.94219017 482.08050156 C-220.06861724 505.15224161 -219.58706738 528.29408704 -213.6875 550.75 C-213.44837891 551.73291016 -213.20925781 552.71582031 -212.96289062 553.72851562 C-211.28428042 560.42966931 -209.09890201 566.86524217 -206.625 573.3125 C-203.11485479 571.2593962 -200.25702628 569.1835446 -197.3125 566.375 C-190.51779927 560.1267623 -183.06143224 554.76526856 -175.625 549.3125 C-175.77122803 548.60754395 -175.91745605 547.90258789 -176.06811523 547.17626953 C-176.73815186 543.93107033 -177.40036746 540.68432073 -178.0625 537.4375 C-178.29259766 536.32890625 -178.52269531 535.2203125 -178.75976562 534.078125 C-178.98212891 532.98242188 -179.20449219 531.88671875 -179.43359375 530.7578125 C-179.63782959 529.76281738 -179.84206543 528.76782227 -180.05249023 527.74267578 C-181.38698391 519.74709534 -181.75899564 511.86802393 -181.67163086 503.77319336 C-181.65887131 501.70011069 -181.64642937 499.62702605 -181.63426208 497.55393982 C-181.62238767 495.92834546 -181.62238767 495.92834546 -181.61027336 494.26991081 C-181.56782373 487.27261784 -181.58000101 480.27514416 -181.58016109 473.27774715 C-181.5771567 467.14331906 -181.55624594 461.00990486 -181.49829102 454.87573242 C-181.44307309 448.91796005 -181.43665493 442.96188761 -181.46298409 437.00393867 C-181.46421608 434.74216288 -181.44780264 432.48030329 -181.41306877 430.21879387 C-180.8083478 418.05716875 -180.8083478 418.05716875 -184.80813599 406.98684692 C-187.30900357 404.71466695 -189.72243126 403.02158411 -192.625 401.3125 C-202.47532665 392.71124683 -210.16343854 381.38914505 -217.1640625 370.4453125 C-217.64617187 369.74148438 -218.12828125 369.03765625 -218.625 368.3125 C-218.955 368.3125 -219.285 368.3125 -219.625 368.3125 Z M218.375 369.3125 C217.56042302 370.38509643 216.79053301 371.49165821 216.0390625 372.609375 C209.08988451 382.7924325 202.06807463 393.07991135 192.25930786 400.74832153 C187.29955013 404.70158142 183.38305598 408.43946121 182.29876709 414.89959717 C181.77524682 420.43000156 181.92017441 425.94618486 182.0546875 431.4921875 C182.05972448 433.55225016 182.05913813 435.61233338 182.05325317 437.6723938 C182.05140986 443.08041427 182.1191998 448.48524811 182.20404053 453.89251709 C182.29478944 460.39859981 182.31050865 466.90518186 182.32989693 473.41180611 C182.3454211 478.48968898 182.37339509 483.56611233 182.44625854 488.64352417 C182.55893067 498.16424509 182.35483412 507.56674583 181.51220703 517.05517578 C181.39682492 518.36545651 181.39682492 518.36545651 181.27911186 519.70220757 C180.58704901 526.68950121 179.26709496 533.49229234 177.61071968 540.31237984 C176.38600394 545.35981043 176.38600394 545.35981043 177.375 550.3125 C179.40079986 552.11584746 181.38558983 553.71348692 183.5625 555.3125 C189.56507625 559.85196784 195.30353761 564.60590061 200.93041992 569.60351562 C203.73618663 572.3980946 203.73618663 572.3980946 207.375 573.3125 C210.48347573 563.47935509 213.47943459 553.65660235 215.625 543.5625 C215.77549805 542.86922607 215.92599609 542.17595215 216.08105469 541.46166992 C218.69587033 528.6241003 219.67424862 515.8971391 219.60205078 502.81835938 C219.60148457 501.3480378 219.6018073 499.87771566 219.60293579 498.40739441 C219.60350213 494.47246552 219.59186638 490.53766228 219.57778788 486.60276222 C219.56515864 482.46951586 219.56410052 478.33626561 219.56173706 474.20300293 C219.55555771 466.40137085 219.53919565 458.59979582 219.51903808 450.79818869 C219.49656775 441.90561279 219.48565785 433.01303396 219.47564721 424.12043667 C219.45482566 405.85109228 219.41971977 387.58180075 219.375 369.3125 C219.045 369.3125 218.715 369.3125 218.375 369.3125 Z M-160.625 427.3125 C-160.69503714 438.32770623 -160.74808051 449.34285801 -160.78043652 460.35824299 C-160.79597909 465.47515639 -160.81700423 470.59191556 -160.85131836 475.70874023 C-160.88432463 480.66250779 -160.90193833 485.61612861 -160.90963173 490.56999779 C-160.91510225 492.44388318 -160.92578024 494.31776211 -160.94219017 496.19158363 C-161.79445435 517.09250876 -161.79445435 517.09250876 -155.625 536.3125 C-155.07900146 536.00135254 -154.53300293 535.69020508 -153.97045898 535.36962891 C-108.54948451 509.64539417 -62.30786237 498.23467737 -10.625 493.3125 C-10.625 478.4625 -10.625 463.6125 -10.625 448.3125 C-17.16996954 449.11796675 -17.16996954 449.11796675 -23.61328125 450.25 C-24.48533203 450.42273438 -25.35738281 450.59546875 -26.25585938 450.7734375 C-28.03235763 451.13054858 -29.80840807 451.4898953 -31.58398438 451.8515625 C-74.68252799 460.35076021 -118.76235452 450.45942366 -156.625 429.3125 C-157.95535236 428.63990441 -159.28800204 427.97178648 -160.625 427.3125 Z M155.9140625 429.69140625 C143.68960231 436.2924886 131.64750613 442.16060232 118.375 446.3125 C117.61832031 446.55049316 116.86164063 446.78848633 116.08203125 447.03369141 C84.10972222 456.82487178 49.04499841 457.29465199 16.703125 448.86328125 C14.28716249 448.19738887 14.28716249 448.19738887 11.375 448.3125 C11.375 463.1625 11.375 478.0125 11.375 493.3125 C16.716875 493.84875 22.05875 494.385 27.5625 494.9375 C73.3215593 499.86629342 116.51462271 513.01460635 156.375 536.3125 C157.91122678 532.77725009 158.82759599 529.49043089 159.4375 525.6875 C159.59347656 524.74648438 159.74945313 523.80546875 159.91015625 522.8359375 C161.3791519 511.7011974 161.50708365 500.73010227 161.47265625 489.51953125 C161.47078763 487.71921325 161.46936582 485.91889474 161.46836853 484.11857605 C161.46457832 479.41525836 161.45477851 474.71197231 161.44366455 470.00866699 C161.43337465 465.19523547 161.42885478 460.38179876 161.42382812 455.56835938 C161.41315258 446.1497258 161.39611894 436.73111555 161.375 427.3125 C159.41732154 427.3125 157.57952638 428.78016004 155.9140625 429.69140625 Z M11.375 515.3125 C11.375 526.5325 11.375 537.7525 11.375 549.3125 C16.304375 549.84875 21.23375 550.385 26.3125 550.9375 C40.98658687 552.66122398 55.1508386 555.22746681 69.375 559.3125 C70.34099121 559.58513672 71.30698242 559.85777344 72.30224609 560.13867188 C101.72132577 568.63522782 129.41952468 583.28800573 153.375 602.3125 C154.24769531 602.993125 155.12039063 603.67375 156.01953125 604.375 C164.21650532 610.90377583 171.77856971 618.10563024 179.375 625.3125 C186.893853 616.12279078 192.2624061 605.95726238 197.375 595.3125 C188.42605017 586.75795678 179.28503465 578.73520018 169.375 571.3125 C168.8294043 570.89935547 168.28380859 570.48621094 167.72167969 570.06054688 C152.70179985 558.74407622 136.38686359 549.28967343 119.375 541.3125 C118.36034668 540.82620117 118.36034668 540.82620117 117.32519531 540.33007812 C84.09872836 524.46672071 48.03568954 516.62181034 11.375 515.3125 Z M-123.625 543.3125 C-124.39779297 543.68810059 -125.17058594 544.06370117 -125.96679688 544.45068359 C-151.91497492 557.14039432 -176.37865894 574.66917186 -196.625 595.3125 C-195.14735349 600.35850562 -192.96470542 604.65135417 -190.375 609.1875 C-189.97676025 609.89132812 -189.57852051 610.59515625 -189.16821289 611.3203125 C-186.31861171 616.28313335 -183.23884913 620.86468569 -179.625 625.3125 C-175.91553826 622.22128189 -172.39673454 619.11766469 -169.0625 615.625 C-163.95586455 610.45944183 -158.25412938 606.11105496 -152.47949219 601.72705078 C-150.7054341 600.37385271 -148.9499576 598.99931154 -147.1953125 597.62109375 C-107.47029955 566.9204214 -59.7395905 554.19824461 -10.625 549.3125 C-10.625 538.0925 -10.625 526.8725 -10.625 515.3125 C-49.47128119 515.3125 -88.92321393 526.10236997 -123.625 543.3125 Z M-143.625 622.3125 C-144.44097656 622.99530029 -144.44097656 622.99530029 -145.2734375 623.69189453 C-152.34796543 629.62144565 -159.26911563 635.60131774 -165.625 642.3125 C-162.02330223 647.51495233 -158.07185916 652.08264003 -153.625 656.5625 C-153.12709961 657.06942383 -152.62919922 657.57634766 -152.11621094 658.09863281 C-148.85555595 661.33366379 -145.52086318 663.87758551 -141.625 666.3125 C-141.10292969 665.76722656 -140.58085937 665.22195313 -140.04296875 664.66015625 C-135.07247337 659.56779234 -129.91444314 654.9247935 -124.3515625 650.48828125 C-122.6582923 649.13706133 -120.982517 647.76320992 -119.3359375 646.35546875 C-81.84310982 614.72492169 -30.06883709 602.00348243 18.0625 606.0625 C65.96308098 610.60472573 108.03602033 632.04743756 141.375 666.3125 C145.04252005 664.7733199 147.36080573 662.55764548 150.140625 659.7421875 C151.47480469 658.39833984 151.47480469 658.39833984 152.8359375 657.02734375 C153.75632812 656.09019531 154.67671875 655.15304687 155.625 654.1875 C156.56984856 653.23261363 157.51515633 652.27818141 158.4609375 651.32421875 C160.77018338 648.99140913 163.07463203 646.65405914 165.375 644.3125 C163.49310099 640.23450571 160.78731386 637.38121979 157.625 634.25 C156.76479248 633.39498901 156.76479248 633.39498901 155.88720703 632.52270508 C149.78980019 626.57488222 143.19082397 621.4022787 136.375 616.3125 C135.45074219 615.60480469 134.52648437 614.89710938 133.57421875 614.16796875 C126.18682622 608.61921614 118.37550993 603.90766468 110.375 599.3125 C109.79298828 598.9721875 109.21097656 598.631875 108.61132812 598.28125 C30.21056487 552.71803685 -74.93911483 564.41113643 -143.625 622.3125 Z M-26.4375 628.1953125 C-27.44087402 628.38963867 -28.44424805 628.58396484 -29.47802734 628.78417969 C-30.51652832 628.99977539 -31.5550293 629.21537109 -32.625 629.4375 C-33.72150879 629.6634082 -34.81801758 629.88931641 -35.94775391 630.12207031 C-63.13916899 635.93148853 -88.68591468 647.85771294 -109.625 666.3125 C-110.53378906 667.11171875 -111.44257813 667.9109375 -112.37890625 668.734375 C-118.17937021 673.84050309 -118.17937021 673.84050309 -123.625 679.3125 C-123.625 679.9725 -123.625 680.6325 -123.625 681.3125 C-121.42286184 682.80800462 -119.23703281 684.16880896 -116.9375 685.5 C-115.92659302 686.09131714 -115.92659302 686.09131714 -114.89526367 686.69458008 C-113.49771533 687.50761869 -112.0976879 688.31640971 -110.6953125 689.12109375 C-108.74598626 690.24287583 -106.81042106 691.38571232 -104.875 692.53125 C-103.1734375 693.50578125 -103.1734375 693.50578125 -101.4375 694.5 C-100.41269531 695.09167969 -99.38789063 695.68335938 -98.33203125 696.29296875 C-95.76742217 697.55964374 -95.76742217 697.55964374 -93.625 696.7734375 C-90.96427668 694.82986226 -88.38105208 692.81453432 -85.8125 690.75 C-63.33115931 673.15632506 -38.6460516 665.03557679 -10.625 661.3125 C-10.625 650.0925 -10.625 638.8725 -10.625 627.3125 C-18.73914512 627.21839966 -18.73914512 627.21839966 -26.4375 628.1953125 Z M11.375 627.3125 C11.375 638.5325 11.375 649.7525 11.375 661.3125 C14.324375 661.704375 17.27375 662.09625 20.3125 662.5 C35.77560091 664.74644002 49.48127972 669.22322132 63.375 676.3125 C64.36242187 676.8075 65.34984375 677.3025 66.3671875 677.8125 C75.69554711 682.67487441 84.10449274 688.69218763 91.5234375 696.16015625 C93.34290288 697.55925011 93.34290288 697.55925011 95.68408203 697.04370117 C100.49373039 695.73677894 104.58342274 693.04181561 108.875 690.5625 C109.81214844 690.0365625 110.74929688 689.510625 111.71484375 688.96875 C116.58220927 686.17950792 120.67351517 683.5472496 124.375 679.3125 C118.81834405 673.41447952 112.72743119 668.33024485 106.375 663.3125 C105.446875 662.56742188 104.51875 661.82234375 103.5625 661.0546875 C95.63581244 654.8727328 87.27109996 649.93648495 78.375 645.3125 C77.69276367 644.95768555 77.01052734 644.60287109 76.30761719 644.23730469 C61.74844995 636.78218501 46.82293229 631.93348266 30.75 628.9375 C29.39998901 628.68564941 29.39998901 628.68564941 28.02270508 628.42871094 C22.23708783 627.43187745 17.45290957 627.3125 11.375 627.3125 Z M-70.625 706.3125 C-67.92482771 709.01267229 -64.89120848 709.65374971 -61.3125 710.6875 C-60.18666504 711.012948 -60.18666504 711.012948 -59.03808594 711.3449707 C-16.07428125 723.35214944 29.24253284 721.87298498 71.375 707.3125 C68.1708079 703.78948282 64.56595572 701.34805698 60.5 698.9375 C59.83943604 698.5453833 59.17887207 698.1532666 58.49829102 697.74926758 C18.89119484 674.73439709 -34.72103469 676.51984794 -70.625 706.3125 Z " fill="#49856E" transform="translate(241.625,-0.3125)"/>
<path d="M0 0 C4.99848512 2.84264994 8.67463213 6.70916247 10.609375 12.1640625 C11.48615913 18.57976175 11.57435748 24.79215075 7.609375 30.1640625 C2.81690926 35.06302748 -1.24789181 37.90646142 -8.203125 38.4765625 C-13.48978181 38.29735379 -18.11416089 37.15848681 -22.15625 33.6171875 C-26.86571369 28.45049433 -28.93011466 23.35921449 -28.69921875 16.2421875 C-27.72569965 9.68633735 -24.06782883 5.3746055 -19.07421875 1.29296875 C-13.85431427 -2.20715282 -5.76533556 -2.01598335 0 0 Z " fill="#49856E" transform="translate(364.390625,210.8359375)"/>
<path d="M0 0 C4.99848512 2.84264994 8.67463213 6.70916247 10.609375 12.1640625 C11.49484886 18.64334721 11.49455276 24.67122498 7.609375 30.1640625 C3.76517804 34.7557422 -0.33002015 37.57939947 -6.37109375 38.44921875 C-12.48268 38.7211075 -17.09922477 36.72638084 -22.140625 33.2890625 C-26.65955531 29.02118388 -28.17548534 24.96087812 -28.640625 18.9140625 C-28.18582865 12.09211724 -26.53569041 7.85144667 -21.390625 3.2265625 C-15.40961287 -1.7462866 -7.36749811 -2.57621666 0 0 Z " fill="#49856E" transform="translate(136.390625,210.8359375)"/>
</svg>
